<mxfile host="app.diagrams.net" agent="Mozilla/5.0 (Windows NT 10.0; Win64; x64) AppleWebKit/537.36 (KHTML, like Gecko) Chrome/118.0.0.0 Safari/537.36" version="26.0.16">
  <diagram name="Page-1" id="bDvF-o2G4oKF2KifuT07">
    <mxGraphModel dx="1942" dy="1151" grid="1" gridSize="10" guides="1" tooltips="1" connect="1" arrows="1" fold="1" page="1" pageScale="1" pageWidth="850" pageHeight="1100" math="0" shadow="0">
      <root>
        <mxCell id="0" />
        <mxCell id="1" parent="0" />
        <mxCell id="2" value="User/System" style="shape=umlLifeline;perimeter=lifelinePerimeter;whiteSpace=wrap;container=1;dropTarget=0;collapsible=0;recursiveResize=0;outlineConnect=0;portConstraint=eastwest;newEdgeStyle={&quot;edgeStyle&quot;:&quot;elbowEdgeStyle&quot;,&quot;elbow&quot;:&quot;vertical&quot;,&quot;curved&quot;:0,&quot;rounded&quot;:0};size=65;" parent="1" vertex="1">
          <mxGeometry width="150" height="420" as="geometry" />
        </mxCell>
        <mxCell id="3" value="Wazuh Agent" style="shape=umlLifeline;perimeter=lifelinePerimeter;whiteSpace=wrap;container=1;dropTarget=0;collapsible=0;recursiveResize=0;outlineConnect=0;portConstraint=eastwest;newEdgeStyle={&quot;edgeStyle&quot;:&quot;elbowEdgeStyle&quot;,&quot;elbow&quot;:&quot;vertical&quot;,&quot;curved&quot;:0,&quot;rounded&quot;:0};size=65;" parent="1" vertex="1">
          <mxGeometry x="224" width="150" height="420" as="geometry" />
        </mxCell>
        <mxCell id="4" value="Wazuh Manager" style="shape=umlLifeline;perimeter=lifelinePerimeter;whiteSpace=wrap;container=1;dropTarget=0;collapsible=0;recursiveResize=0;outlineConnect=0;portConstraint=eastwest;newEdgeStyle={&quot;edgeStyle&quot;:&quot;elbowEdgeStyle&quot;,&quot;elbow&quot;:&quot;vertical&quot;,&quot;curved&quot;:0,&quot;rounded&quot;:0};size=65;" parent="1" vertex="1">
          <mxGeometry x="442" width="150" height="420" as="geometry" />
        </mxCell>
        <mxCell id="5" value="FileBeat" style="shape=umlLifeline;perimeter=lifelinePerimeter;whiteSpace=wrap;container=1;dropTarget=0;collapsible=0;recursiveResize=0;outlineConnect=0;portConstraint=eastwest;newEdgeStyle={&quot;edgeStyle&quot;:&quot;elbowEdgeStyle&quot;,&quot;elbow&quot;:&quot;vertical&quot;,&quot;curved&quot;:0,&quot;rounded&quot;:0};size=65;" parent="1" vertex="1">
          <mxGeometry x="680" width="150" height="420" as="geometry" />
        </mxCell>
        <mxCell id="6" value="AI model " style="shape=umlLifeline;perimeter=lifelinePerimeter;whiteSpace=wrap;container=1;dropTarget=0;collapsible=0;recursiveResize=0;outlineConnect=0;portConstraint=eastwest;newEdgeStyle={&quot;edgeStyle&quot;:&quot;elbowEdgeStyle&quot;,&quot;elbow&quot;:&quot;vertical&quot;,&quot;curved&quot;:0,&quot;rounded&quot;:0};size=65;" parent="1" vertex="1">
          <mxGeometry x="1140" width="150" height="420" as="geometry" />
        </mxCell>
        <mxCell id="7" value="Security Analyst" style="shape=umlLifeline;perimeter=lifelinePerimeter;whiteSpace=wrap;container=1;dropTarget=0;collapsible=0;recursiveResize=0;outlineConnect=0;portConstraint=eastwest;newEdgeStyle={&quot;edgeStyle&quot;:&quot;elbowEdgeStyle&quot;,&quot;elbow&quot;:&quot;vertical&quot;,&quot;curved&quot;:0,&quot;rounded&quot;:0};size=65;" parent="1" vertex="1">
          <mxGeometry x="1620" width="150" height="420" as="geometry" />
        </mxCell>
        <mxCell id="8" value="Generates a log event" style="verticalAlign=bottom;edgeStyle=elbowEdgeStyle;elbow=vertical;curved=0;rounded=0;endArrow=block;fontStyle=1" parent="1" source="2" target="3" edge="1">
          <mxGeometry relative="1" as="geometry">
            <Array as="points">
              <mxPoint x="196" y="107" />
            </Array>
          </mxGeometry>
        </mxCell>
        <mxCell id="9" value="Sends log event data" style="verticalAlign=bottom;edgeStyle=elbowEdgeStyle;elbow=horizontal;curved=0;rounded=0;dashed=1;dashPattern=2 3;endArrow=block;fontStyle=1" parent="1" source="3" target="4" edge="1">
          <mxGeometry relative="1" as="geometry">
            <Array as="points">
              <mxPoint x="417" y="159" />
            </Array>
          </mxGeometry>
        </mxCell>
        <mxCell id="10" value="Forwards log event data" style="verticalAlign=bottom;edgeStyle=elbowEdgeStyle;elbow=vertical;curved=0;rounded=0;dashed=1;dashPattern=2 3;endArrow=block;fontStyle=1" parent="1" source="4" target="5" edge="1">
          <mxGeometry relative="1" as="geometry">
            <Array as="points">
              <mxPoint x="646" y="211" />
            </Array>
          </mxGeometry>
        </mxCell>
        <mxCell id="11" value="Analyzes log event data for anomaly" style="verticalAlign=bottom;edgeStyle=elbowEdgeStyle;elbow=vertical;curved=0;rounded=0;dashed=1;dashPattern=2 3;endArrow=block;fontStyle=1" parent="1" edge="1">
          <mxGeometry relative="1" as="geometry">
            <Array as="points">
              <mxPoint x="1110" y="288" />
            </Array>
            <mxPoint x="994.6304347826087" y="288" as="sourcePoint" />
            <mxPoint x="1214.5000000000002" y="288" as="targetPoint" />
          </mxGeometry>
        </mxCell>
        <mxCell id="12" value=" " style="verticalAlign=bottom;edgeStyle=elbowEdgeStyle;elbow=vertical;curved=0;rounded=0;dashed=1;dashPattern=2 3;endArrow=block;" parent="1" source="QybZzYCm5L95nixNce4I-14" target="7" edge="1">
          <mxGeometry x="0.0849" relative="1" as="geometry">
            <Array as="points">
              <mxPoint x="1580" y="400" />
              <mxPoint x="1385" y="220" />
            </Array>
            <mxPoint x="-1" as="offset" />
          </mxGeometry>
        </mxCell>
        <mxCell id="QybZzYCm5L95nixNce4I-12" value="ElasticSearch" style="shape=umlLifeline;perimeter=lifelinePerimeter;whiteSpace=wrap;container=1;dropTarget=0;collapsible=0;recursiveResize=0;outlineConnect=0;portConstraint=eastwest;newEdgeStyle={&quot;edgeStyle&quot;:&quot;elbowEdgeStyle&quot;,&quot;elbow&quot;:&quot;vertical&quot;,&quot;curved&quot;:0,&quot;rounded&quot;:0};size=65;" vertex="1" parent="1">
          <mxGeometry x="920" width="150" height="420" as="geometry" />
        </mxCell>
        <mxCell id="QybZzYCm5L95nixNce4I-13" value="Send Log for indexing and Storage" style="verticalAlign=bottom;edgeStyle=elbowEdgeStyle;elbow=vertical;curved=0;rounded=0;dashed=1;dashPattern=2 3;endArrow=block;fontStyle=1" edge="1" parent="1" target="QybZzYCm5L95nixNce4I-12">
          <mxGeometry relative="1" as="geometry">
            <Array as="points">
              <mxPoint x="812" y="249" />
            </Array>
            <mxPoint x="756.3235294117646" y="229" as="sourcePoint" />
            <mxPoint x="964.5" y="229" as="targetPoint" />
          </mxGeometry>
        </mxCell>
        <mxCell id="QybZzYCm5L95nixNce4I-14" value="Kibana" style="shape=umlLifeline;perimeter=lifelinePerimeter;whiteSpace=wrap;container=1;dropTarget=0;collapsible=0;recursiveResize=0;outlineConnect=0;portConstraint=eastwest;newEdgeStyle={&quot;edgeStyle&quot;:&quot;elbowEdgeStyle&quot;,&quot;elbow&quot;:&quot;vertical&quot;,&quot;curved&quot;:0,&quot;rounded&quot;:0};size=65;" vertex="1" parent="1">
          <mxGeometry x="1380" width="150" height="420" as="geometry" />
        </mxCell>
        <mxCell id="QybZzYCm5L95nixNce4I-16" value="Store Detected Anomalies" style="verticalAlign=bottom;edgeStyle=elbowEdgeStyle;elbow=vertical;curved=0;rounded=0;dashed=1;dashPattern=2 3;endArrow=block;fontStyle=1" edge="1" parent="1">
          <mxGeometry relative="1" as="geometry">
            <Array as="points">
              <mxPoint x="1120" y="324" />
            </Array>
            <mxPoint x="1214.5000000000002" y="324" as="sourcePoint" />
            <mxPoint x="994.6304347826087" y="324" as="targetPoint" />
          </mxGeometry>
        </mxCell>
        <mxCell id="QybZzYCm5L95nixNce4I-18" value="" style="endArrow=classic;html=1;rounded=0;dashed=1;" edge="1" parent="1">
          <mxGeometry relative="1" as="geometry">
            <mxPoint x="994.4473684210527" y="368" as="sourcePoint" />
            <mxPoint x="1454.5" y="368" as="targetPoint" />
            <Array as="points">
              <mxPoint x="1230" y="368" />
            </Array>
          </mxGeometry>
        </mxCell>
        <mxCell id="QybZzYCm5L95nixNce4I-19" value="&lt;b&gt;Send data for&amp;nbsp;visualization&lt;/b&gt;" style="edgeLabel;resizable=0;html=1;;align=center;verticalAlign=middle;" connectable="0" vertex="1" parent="QybZzYCm5L95nixNce4I-18">
          <mxGeometry relative="1" as="geometry">
            <mxPoint y="-2" as="offset" />
          </mxGeometry>
        </mxCell>
        <mxCell id="QybZzYCm5L95nixNce4I-22" value="&lt;b&gt;Dispaly Alerts and insights&lt;/b&gt;" style="text;html=1;align=center;verticalAlign=middle;resizable=0;points=[];autosize=1;strokeColor=none;fillColor=none;" vertex="1" parent="1">
          <mxGeometry x="1490" y="374" width="180" height="30" as="geometry" />
        </mxCell>
      </root>
    </mxGraphModel>
  </diagram>
</mxfile>
